ISO-10303-21;
HEADER;
FILE_DESCRIPTION (( 'STEP AP214' ),
    '1' );
FILE_NAME ('Funnel Body rev 2.STEP',
    '2026-09-18T17:53:56',
    ( '' ),
    ( '' ),
    'SwSTEP 2.0',
    'SolidWorks 2026',
    '' );
FILE_SCHEMA (( 'AUTOMOTIVE_DESIGN' ));
ENDSEC;

DATA;
#1 = CARTESIAN_POINT ( 'NONE',  ( 6.066714864352957370, 7.429582939969518795E-16, -5.810056281885856322 ) ) ;
#2 = CLOSED_SHELL ( 'NONE', ( #390, #35, #255, #237, #210, #275, #111, #169, #408, #153, #20, #534, #120, #355, #508, #406, #353, #69, #424, #318 ) ) ;
#3 = AXIS2_PLACEMENT_3D ( 'NONE', #458, #404, #530 ) ;
#4 = VERTEX_POINT ( 'NONE', #110 ) ;
#5 = CARTESIAN_POINT ( 'NONE',  ( 0.000000000000000000, 0.000000000000000000, -4.310056281885853657 ) ) ;
#6 = ORIENTED_EDGE ( 'NONE', *, *, #335, .T. ) ;
#7 = DIRECTION ( 'NONE',  ( 0.000000000000000000, 0.000000000000000000, -1.000000000000000000 ) ) ;
#8 = ORIENTED_EDGE ( 'NONE', *, *, #252, .F. ) ;
#9 = DIRECTION ( 'NONE',  ( 1.000000000000000000, 0.000000000000000000, 0.000000000000000000 ) ) ;
#10 = ORIENTED_EDGE ( 'NONE', *, *, #294, .T. ) ;
#11 = AXIS2_PLACEMENT_3D ( 'NONE', #59, #364, #498 ) ;
#12 = DIRECTION ( 'NONE',  ( -0.000000000000000000, -0.000000000000000000, 1.000000000000000000 ) ) ;
#13 = ORIENTED_EDGE ( 'NONE', *, *, #137, .F. ) ;
#14 = EDGE_CURVE ( 'NONE', #363, #172, #101, .T. ) ;
#15 = DIRECTION ( 'NONE',  ( 1.000000000000000000, 0.000000000000000000, 0.000000000000000000 ) ) ;
#16 = VERTEX_POINT ( 'NONE', #159 ) ;
#17 = CARTESIAN_POINT ( 'NONE',  ( 0.000000000000000000, 0.000000000000000000, -8.000000000000000000 ) ) ;
#18 = ORIENTED_EDGE ( 'NONE', *, *, #30, .F. ) ;
#19 = VECTOR ( 'NONE', #245, 1000.000000000000114 ) ;
#20 = ADVANCED_FACE ( 'NONE', ( #62 ), #312, .T. ) ;
#21 = DIRECTION ( 'NONE',  ( -0.000000000000000000, -0.000000000000000000, 1.000000000000000000 ) ) ;
#22 = EDGE_LOOP ( 'NONE', ( #344, #319, #49, #46 ) ) ;
#23 = CARTESIAN_POINT ( 'NONE',  ( 0.000000000000000000, 0.000000000000000000, -4.768167215884282939 ) ) ;
#24 = VERTEX_POINT ( 'NONE', #325 ) ;
#25 = CARTESIAN_POINT ( 'NONE',  ( -3.468638652999641803, 5.474698955727270380E-16, -4.310056281885853657 ) ) ;
#26 = ORIENTED_EDGE ( 'NONE', *, *, #434, .T. ) ;
#27 = CIRCLE ( 'NONE', #493, 4.224999999999999645 ) ;
#28 = PRESENTATION_LAYER_ASSIGNMENT (  '', '', ( #269 ) ) ;
#29 = ORIENTED_EDGE ( 'NONE', *, *, #476, .T. ) ;
#30 = EDGE_CURVE ( 'NONE', #4, #86, #106, .T. ) ;
#31 = CARTESIAN_POINT ( 'NONE',  ( 1.917930794008003481, 2.348787807868043008E-16, -15.00000000000000000 ) ) ;
#32 = CARTESIAN_POINT ( 'NONE',  ( 0.000000000000000000, 0.000000000000000000, 0.000000000000000000 ) ) ;
#33 =( NAMED_UNIT ( * ) PLANE_ANGLE_UNIT ( ) SI_UNIT ( $, .RADIAN. ) );
#34 = CARTESIAN_POINT ( 'NONE',  ( -8.925000000000004263, 1.092997268239013288E-15, 0.1406387955737165019 ) ) ;
#35 = ADVANCED_FACE ( 'NONE', ( #541 ), #188, .F. ) ;
#36 = CONICAL_SURFACE ( 'NONE', #494, 4.224999999999999645, 0.5235987755982995928 ) ;
#37 = DIRECTION ( 'NONE',  ( 0.5000000000000007772, 0.000000000000000000, 0.8660254037844381525 ) ) ;
#38 = PRESENTATION_STYLE_ASSIGNMENT (( #160 ) ) ;
#39 = FACE_OUTER_BOUND ( 'NONE', #234, .T. ) ;
#40 = EDGE_LOOP ( 'NONE', ( #473, #537, #338, #13 ) ) ;
#41 = PLANE ( 'NONE',  #243 ) ;
#42 = EDGE_LOOP ( 'NONE', ( #141, #347, #192, #517 ) ) ;
#43 = CARTESIAN_POINT ( 'NONE',  ( 0.000000000000000000, 0.000000000000000000, 0.6602540378443811919 ) ) ;
#44 = VECTOR ( 'NONE', #465, 1000.000000000000000 ) ;
#45 = AXIS2_PLACEMENT_3D ( 'NONE', #23, #450, #456 ) ;
#46 = ORIENTED_EDGE ( 'NONE', *, *, #129, .F. ) ;
#47 = EDGE_CURVE ( 'NONE', #105, #499, #487, .T. ) ;
#48 = DIRECTION ( 'NONE',  ( 1.000000000000000000, 0.000000000000000000, 0.000000000000000000 ) ) ;
#49 = ORIENTED_EDGE ( 'NONE', *, *, #476, .F. ) ;
#50 = DIRECTION ( 'NONE',  ( -0.7071067811865474617, 8.659560562354932858E-17, 0.7071067811865474617 ) ) ;
#51 = ORIENTED_EDGE ( 'NONE', *, *, #470, .F. ) ;
#52 = EDGE_CURVE ( 'NONE', #531, #16, #382, .T. ) ;
#53 = EDGE_CURVE ( 'NONE', #105, #98, #448, .T. ) ;
#54 = CARTESIAN_POINT ( 'NONE',  ( 0.000000000000000000, 0.000000000000000000, -15.00000000000000000 ) ) ;
#55 = EDGE_LOOP ( 'NONE', ( #438, #189, #81, #144 ) ) ;
#56 = CIRCLE ( 'NONE', #235, 1.917930794008003481 ) ;
#57 = FACE_OUTER_BOUND ( 'NONE', #125, .T. ) ;
#58 = EDGE_LOOP ( 'NONE', ( #354, #201, #227, #520 ) ) ;
#59 = CARTESIAN_POINT ( 'NONE',  ( 0.000000000000000000, 0.000000000000000000, -15.00000000000000000 ) ) ;
#60 = DIRECTION ( 'NONE',  ( 0.2588190451025213501, 3.169619151431772337E-17, -0.9659258262890680902 ) ) ;
#61 = CARTESIAN_POINT ( 'NONE',  ( 0.000000000000000000, 0.000000000000000000, 0.1406387955737165019 ) ) ;
#62 = FACE_OUTER_BOUND ( 'NONE', #42, .T. ) ;
#63 = AXIS2_PLACEMENT_3D ( 'NONE', #133, #472, #310 ) ;
#64 = CARTESIAN_POINT ( 'NONE',  ( 0.000000000000000000, 0.000000000000000000, 0.6602540378443819691 ) ) ;
#65 = ORIENTED_EDGE ( 'NONE', *, *, #52, .T. ) ;
#66 = LINE ( 'NONE', #68, #547 ) ;
#67 = DIRECTION ( 'NONE',  ( 1.000000000000000000, 0.000000000000000000, 0.000000000000000000 ) ) ;
#68 = CARTESIAN_POINT ( 'NONE',  ( -1.917930794008003481, 0.000000000000000000, -15.00000000000000000 ) ) ;
#69 = ADVANCED_FACE ( 'NONE', ( #128 ), #143, .T. ) ;
#70 = VERTEX_POINT ( 'NONE', #417 ) ;
#71 = AXIS2_PLACEMENT_3D ( 'NONE', #321, #367, #371 ) ;
#72 = VECTOR ( 'NONE', #322, 1000.000000000000000 ) ;
#73 = DIRECTION ( 'NONE',  ( -1.000000000000000000, -1.224646799147353207E-16, 0.000000000000000000 ) ) ;
#74 = DIRECTION ( 'NONE',  ( -0.000000000000000000, -0.000000000000000000, 1.000000000000000000 ) ) ;
#75 = FACE_BOUND ( 'NONE', #196, .T. ) ;
#76 = EDGE_CURVE ( 'NONE', #172, #499, #202, .T. ) ;
#77 =( NAMED_UNIT ( * ) SI_UNIT ( $, .STERADIAN. ) SOLID_ANGLE_UNIT ( ) );
#78 = CARTESIAN_POINT ( 'NONE',  ( 1.917930794008003481, 2.348787807868043008E-16, -15.00000000000000000 ) ) ;
#79 = CIRCLE ( 'NONE', #451, 4.224999999999999645 ) ;
#80 = FACE_BOUND ( 'NONE', #392, .T. ) ;
#81 = ORIENTED_EDGE ( 'NONE', *, *, #383, .T. ) ;
#82 = CARTESIAN_POINT ( 'NONE',  ( -5.472223250267435724, 6.701540687659741477E-16, -0.8397459621556149223 ) ) ;
#83 = LINE ( 'NONE', #334, #428 ) ;
#84 = CARTESIAN_POINT ( 'NONE',  ( 0.000000000000000000, 0.000000000000000000, -8.000000000000000000 ) ) ;
#85 = EDGE_CURVE ( 'NONE', #433, #263, #170, .T. ) ;
#86 = VERTEX_POINT ( 'NONE', #78 ) ;
#87 = CIRCLE ( 'NONE', #546, 1.504188906600140596 ) ;
#88 = CIRCLE ( 'NONE', #370, 3.112291605316329424 ) ;
#89 = VERTEX_POINT ( 'NONE', #462 ) ;
#90 = DIRECTION ( 'NONE',  ( 0.000000000000000000, 0.000000000000000000, -1.000000000000000000 ) ) ;
#91 = ORIENTED_EDGE ( 'NONE', *, *, #454, .T. ) ;
#92 = PRODUCT_RELATED_PRODUCT_CATEGORY ( 'part', '', ( #215 ) ) ;
#93 = EDGE_CURVE ( 'NONE', #24, #174, #83, .T. ) ;
#94 = DIRECTION ( 'NONE',  ( -1.000000000000000000, 0.000000000000000000, 0.000000000000000000 ) ) ;
#95 = ORIENTED_EDGE ( 'NONE', *, *, #193, .T. ) ;
#96 = LINE ( 'NONE', #213, #154 ) ;
#97 = AXIS2_PLACEMENT_3D ( 'NONE', #421, #208, #209 ) ;
#98 = VERTEX_POINT ( 'NONE', #375 ) ;
#99 =( GEOMETRIC_REPRESENTATION_CONTEXT ( 3 ) GLOBAL_UNCERTAINTY_ASSIGNED_CONTEXT ( ( #430 ) ) GLOBAL_UNIT_ASSIGNED_CONTEXT ( ( #466, #285, #77 ) ) REPRESENTATION_CONTEXT ( 'NONE', 'WORKASPACE' ) );
#100 = DIRECTION ( 'NONE',  ( -1.000000000000000000, 0.000000000000000000, 0.000000000000000000 ) ) ;
#101 = LINE ( 'NONE', #447, #212 ) ;
#102 = CARTESIAN_POINT ( 'NONE',  ( -3.624999999999999556, 4.806738686653360679E-16, -15.00000000000000000 ) ) ;
#103 = ORIENTED_EDGE ( 'NONE', *, *, #434, .F. ) ;
#104 = DIRECTION ( 'NONE',  ( 1.000000000000000000, 0.000000000000000000, 0.000000000000000000 ) ) ;
#105 = VERTEX_POINT ( 'NONE', #511 ) ;
#106 = CIRCLE ( 'NONE', #341, 1.917930794008003481 ) ;
#107 = VECTOR ( 'NONE', #184, 999.9999999999998863 ) ;
#108 = AXIS2_PLACEMENT_3D ( 'NONE', #463, #74, #410 ) ;
#109 = CARTESIAN_POINT ( 'NONE',  ( 0.000000000000000000, 0.000000000000000000, -5.289111748885084729 ) ) ;
#110 = CARTESIAN_POINT ( 'NONE',  ( -1.917930794008003481, 0.000000000000000000, -15.00000000000000000 ) ) ;
#111 = ADVANCED_FACE ( 'NONE', ( #299 ), #277, .F. ) ;
#112 = LINE ( 'NONE', #368, #362 ) ;
#113 = DIRECTION ( 'NONE',  ( -1.000000000000000000, 0.000000000000000000, 0.000000000000000000 ) ) ;
#114 = DIRECTION ( 'NONE',  ( 1.000000000000000000, 0.000000000000000000, 0.000000000000000000 ) ) ;
#115 = CARTESIAN_POINT ( 'NONE',  ( 0.000000000000000000, 4.224999999999999645, -15.00000000000000000 ) ) ;
#116 = TOROIDAL_SURFACE ( 'NONE', #63, 8.070299461620750847, 3.000000000000000000 ) ;
#117 = AXIS2_PLACEMENT_3D ( 'NONE', #149, #187, #100 ) ;
#118 = DIRECTION ( 'NONE',  ( -1.000000000000000000, 0.000000000000000000, 0.000000000000000000 ) ) ;
#119 = DIRECTION ( 'NONE',  ( 1.000000000000000000, 0.000000000000000000, 0.000000000000000000 ) ) ;
#120 = ADVANCED_FACE ( 'NONE', ( #39, #75 ), #257, .F. ) ;
#121 = DIRECTION ( 'NONE',  ( -1.000000000000000000, 0.000000000000000000, 0.000000000000000000 ) ) ;
#122 = APPLICATION_CONTEXT ( 'automotive_design' ) ;
#123 = APPLICATION_PROTOCOL_DEFINITION ( 'draft international standard', 'automotive_design', 1998, #122 ) ;
#124 = DIRECTION ( 'NONE',  ( -0.5000000000000006661, 6.123233995736774664E-17, 0.8660254037844382635 ) ) ;
#125 = EDGE_LOOP ( 'NONE', ( #405, #395, #442, #10 ) ) ;
#126 = CONICAL_SURFACE ( 'NONE', #439, 4.224999999999999645, 0.7853981633974482790 ) ;
#127 = AXIS2_PLACEMENT_3D ( 'NONE', #348, #356, #441 ) ;
#128 = FACE_OUTER_BOUND ( 'NONE', #58, .T. ) ;
#129 = EDGE_CURVE ( 'NONE', #98, #174, #165, .T. ) ;
#130 = DIRECTION ( 'NONE',  ( 1.000000000000000000, 0.000000000000000000, 0.000000000000000000 ) ) ;
#131 = DIRECTION ( 'NONE',  ( -1.000000000000000000, 0.000000000000000000, 0.000000000000000000 ) ) ;
#132 = EDGE_LOOP ( 'NONE', ( #284, #241, #527, #51 ) ) ;
#133 = CARTESIAN_POINT ( 'NONE',  ( 0.000000000000000000, 0.000000000000000000, -2.339745962155618919 ) ) ;
#134 = AXIS2_PLACEMENT_3D ( 'NONE', #343, #307, #171 ) ;
#135 = AXIS2_PLACEMENT_3D ( 'NONE', #64, #240, #276 ) ;
#136 = ORIENTED_EDGE ( 'NONE', *, *, #372, .F. ) ;
#137 = EDGE_CURVE ( 'NONE', #263, #185, #161, .T. ) ;
#138 = CARTESIAN_POINT ( 'NONE',  ( 0.000000000000000000, 0.000000000000000000, -14.40000000000000036 ) ) ;
#139 = ORIENTED_EDGE ( 'NONE', *, *, #195, .F. ) ;
#140 = FACE_OUTER_BOUND ( 'NONE', #397, .T. ) ;
#141 = ORIENTED_EDGE ( 'NONE', *, *, #93, .F. ) ;
#142 = CARTESIAN_POINT ( 'NONE',  ( -3.204148181936937956, 3.923949815002882523E-16, -4.768167215884282939 ) ) ;
#143 = CONICAL_SURFACE ( 'NONE', #288, 4.224999999999999645, 0.7853981633974482790 ) ;
#144 = ORIENTED_EDGE ( 'NONE', *, *, #309, .F. ) ;
#145 = CONICAL_SURFACE ( 'NONE', #45, 3.204148181936937956, 0.1745329251994260089 ) ;
#146 = EDGE_CURVE ( 'NONE', #89, #363, #380, .T. ) ;
#147 = DIRECTION ( 'NONE',  ( -0.000000000000000000, -0.000000000000000000, 1.000000000000000000 ) ) ;
#148 = ORIENTED_EDGE ( 'NONE', *, *, #85, .F. ) ;
#149 = CARTESIAN_POINT ( 'NONE',  ( 0.000000000000000000, 0.000000000000000000, 0.1406387955737165019 ) ) ;
#150 = ORIENTED_EDGE ( 'NONE', *, *, #492, .T. ) ;
#151 = DIRECTION ( 'NONE',  ( -1.000000000000000000, 0.000000000000000000, 0.000000000000000000 ) ) ;
#152 = ORIENTED_EDGE ( 'NONE', *, *, #52, .F. ) ;
#153 = ADVANCED_FACE ( 'NONE', ( #506, #80 ), #41, .F. ) ;
#154 = VECTOR ( 'NONE', #514, 999.9999999999998863 ) ;
#155 = EDGE_CURVE ( 'NONE', #482, #263, #360, .T. ) ;
#156 = CIRCLE ( 'NONE', #224, 5.472223250267435724 ) ;
#157 = DIRECTION ( 'NONE',  ( 1.000000000000000000, 0.000000000000000000, 0.000000000000000000 ) ) ;
#158 = CARTESIAN_POINT ( 'NONE',  ( 0.000000000000000000, 0.000000000000000000, -15.00000000000000000 ) ) ;
#159 = CARTESIAN_POINT ( 'NONE',  ( -8.070299461620750847, 0.000000000000000000, 0.6602540378443811919 ) ) ;
#160 = SURFACE_STYLE_USAGE ( .BOTH. , #203 ) ;
#161 = LINE ( 'NONE', #332, #233 ) ;
#162 = AXIS2_PLACEMENT_3D ( 'NONE', #226, #396, #317 ) ;
#163 = CARTESIAN_POINT ( 'NONE',  ( -6.066714864352957370, 0.000000000000000000, -5.810056281885856322 ) ) ;
#164 = AXIS2_PLACEMENT_3D ( 'NONE', #331, #290, #118 ) ;
#165 = LINE ( 'NONE', #500, #44 ) ;
#166 = DIRECTION ( 'NONE',  ( -1.224646799147353207E-16, 1.000000000000000000, 0.000000000000000000 ) ) ;
#167 = SHAPE_DEFINITION_REPRESENTATION ( #431, #386 ) ;
#168 = DIRECTION ( 'NONE',  ( -1.000000000000000000, 0.000000000000000000, 0.000000000000000000 ) ) ;
#169 = ADVANCED_FACE ( 'NONE', ( #249 ), #415, .T. ) ;
#170 = CIRCLE ( 'NONE', #538, 3.468638652999641803 ) ;
#171 = DIRECTION ( 'NONE',  ( -1.000000000000000000, 0.000000000000000000, 0.000000000000000000 ) ) ;
#172 = VERTEX_POINT ( 'NONE', #464 ) ;
#173 = DIRECTION ( 'NONE',  ( -0.000000000000000000, -0.000000000000000000, 1.000000000000000000 ) ) ;
#174 = VERTEX_POINT ( 'NONE', #34 ) ;
#175 = EDGE_CURVE ( 'NONE', #436, #515, #350, .T. ) ;
#176 = DIRECTION ( 'NONE',  ( 1.000000000000000000, 0.000000000000000000, 0.000000000000000000 ) ) ;
#177 = ORIENTED_EDGE ( 'NONE', *, *, #76, .F. ) ;
#178 = AXIS2_PLACEMENT_3D ( 'NONE', #204, #376, #548 ) ;
#179 = FACE_OUTER_BOUND ( 'NONE', #480, .T. ) ;
#180 = CIRCLE ( 'NONE', #117, 8.925000000000004263 ) ;
#181 = ORIENTED_EDGE ( 'NONE', *, *, #485, .T. ) ;
#182 = CARTESIAN_POINT ( 'NONE',  ( 3.468638652999641803, 0.000000000000000000, -4.310056281885853657 ) ) ;
#183 = EDGE_LOOP ( 'NONE', ( #231, #239, #18, #219 ) ) ;
#184 = DIRECTION ( 'NONE',  ( -0.1736481776669235311, 2.126576849575687790E-17, 0.9848077530122093526 ) ) ;
#185 = VERTEX_POINT ( 'NONE', #418 ) ;
#186 = EDGE_CURVE ( 'NONE', #515, #436, #87, .T. ) ;
#187 = DIRECTION ( 'NONE',  ( 0.000000000000000000, 0.000000000000000000, -1.000000000000000000 ) ) ;
#188 = CONICAL_SURFACE ( 'NONE', #528, 1.917930794008003481, 0.6108652381980227419 ) ;
#189 = ORIENTED_EDGE ( 'NONE', *, *, #175, .F. ) ;
#190 = VECTOR ( 'NONE', #50, 1000.000000000000114 ) ;
#191 = DIRECTION ( 'NONE',  ( -0.000000000000000000, -0.000000000000000000, -1.000000000000000000 ) ) ;
#192 = ORIENTED_EDGE ( 'NONE', *, *, #76, .T. ) ;
#193 = EDGE_CURVE ( 'NONE', #363, #70, #27, .T. ) ;
#194 = FACE_OUTER_BOUND ( 'NONE', #55, .T. ) ;
#195 = EDGE_CURVE ( 'NONE', #531, #185, #323, .T. ) ;
#196 = EDGE_LOOP ( 'NONE', ( #279, #475 ) ) ;
#197 = CARTESIAN_POINT ( 'NONE',  ( 0.000000000000000000, 0.000000000000000000, -2.339745962155618919 ) ) ;
#198 = ORIENTED_EDGE ( 'NONE', *, *, #550, .F. ) ;
#199 = CIRCLE ( 'NONE', #384, 3.468638652999641803 ) ;
#200 = TOROIDAL_SURFACE ( 'NONE', #162, 6.066714864352957370, 3.000000000000000000 ) ;
#201 = ORIENTED_EDGE ( 'NONE', *, *, #485, .F. ) ;
#202 = LINE ( 'NONE', #553, #369 ) ;
#203 = SURFACE_SIDE_STYLE ('',( #460 ) ) ;
#204 = CARTESIAN_POINT ( 'NONE',  ( 0.000000000000000000, 0.000000000000000000, -14.40911534819275097 ) ) ;
#205 = TOROIDAL_SURFACE ( 'NONE', #393, 6.066714864352957370, 3.000000000000000000 ) ;
#206 = AXIS2_PLACEMENT_3D ( 'NONE', #271, #191, #407 ) ;
#207 = APPLICATION_PROTOCOL_DEFINITION ( 'draft international standard', 'automotive_design', 1998, #497 ) ;
#208 = DIRECTION ( 'NONE',  ( -0.000000000000000000, -1.000000000000000000, -0.000000000000000000 ) ) ;
#209 = DIRECTION ( 'NONE',  ( 0.000000000000000000, 0.000000000000000000, -1.000000000000000000 ) ) ;
#210 = ADVANCED_FACE ( 'NONE', ( #268 ), #116, .T. ) ;
#211 = CARTESIAN_POINT ( 'NONE',  ( 0.000000000000000000, 6.338248654051874986, 0.6602540378443811919 ) ) ;
#212 = VECTOR ( 'NONE', #453, 1000.000000000000000 ) ;
#213 = CARTESIAN_POINT ( 'NONE',  ( 3.204148181936937956, 0.000000000000000000, -4.768167215884282939 ) ) ;
#214 = ORIENTED_EDGE ( 'NONE', *, *, #228, .T. ) ;
#215 = PRODUCT ( 'Funnel Body rev 2', 'Funnel Body rev 2', '', ( #336 ) ) ;
#216 = EDGE_CURVE ( 'NONE', #24, #172, #250, .T. ) ;
#217 = PRODUCT_DEFINITION_CONTEXT ( 'detailed design', #122, 'design' ) ;
#218 = DIRECTION ( 'NONE',  ( -0.000000000000000000, -0.000000000000000000, 1.000000000000000000 ) ) ;
#219 = ORIENTED_EDGE ( 'NONE', *, *, #383, .F. ) ;
#220 = CARTESIAN_POINT ( 'NONE',  ( 0.000000000000000000, 0.000000000000000000, -8.000000000000000000 ) ) ;
#221 = ORIENTED_EDGE ( 'NONE', *, *, #455, .T. ) ;
#222 = AXIS2_PLACEMENT_3D ( 'NONE', #43, #305, #479 ) ;
#223 = FACE_OUTER_BOUND ( 'NONE', #496, .T. ) ;
#224 = AXIS2_PLACEMENT_3D ( 'NONE', #516, #218, #131 ) ;
#225 = ORIENTED_EDGE ( 'NONE', *, *, #155, .T. ) ;
#226 = CARTESIAN_POINT ( 'NONE',  ( 0.000000000000000000, 0.000000000000000000, -5.810056281885856322 ) ) ;
#227 = ORIENTED_EDGE ( 'NONE', *, *, #146, .T. ) ;
#228 = EDGE_CURVE ( 'NONE', #16, #542, #449, .T. ) ;
#229 = UNCERTAINTY_MEASURE_WITH_UNIT (LENGTH_MEASURE( 1.000000000000000082E-05 ), #416, 'distance_accuracy_value', 'NONE');
#230 = FACE_OUTER_BOUND ( 'NONE', #22, .T. ) ;
#231 = ORIENTED_EDGE ( 'NONE', *, *, #186, .F. ) ;
#232 = FACE_OUTER_BOUND ( 'NONE', #297, .T. ) ;
#233 = VECTOR ( 'NONE', #37, 1000.000000000000227 ) ;
#234 = EDGE_LOOP ( 'NONE', ( #181, #26 ) ) ;
#235 = AXIS2_PLACEMENT_3D ( 'NONE', #54, #12, #48 ) ;
#236 = PRODUCT_DEFINITION_FORMATION_WITH_SPECIFIED_SOURCE ( 'ANY', '', #215, .NOT_KNOWN. ) ;
#237 = ADVANCED_FACE ( 'NONE', ( #140 ), #205, .T. ) ;
#238 = DIRECTION ( 'NONE',  ( -1.000000000000000000, 0.000000000000000000, 0.000000000000000000 ) ) ;
#239 = ORIENTED_EDGE ( 'NONE', *, *, #525, .T. ) ;
#240 = DIRECTION ( 'NONE',  ( 0.000000000000000000, 0.000000000000000000, -1.000000000000000000 ) ) ;
#241 = ORIENTED_EDGE ( 'NONE', *, *, #552, .F. ) ;
#242 = ORIENTED_EDGE ( 'NONE', *, *, #193, .F. ) ;
#243 = AXIS2_PLACEMENT_3D ( 'NONE', #211, #247, #287 ) ;
#244 = CARTESIAN_POINT ( 'NONE',  ( 1.504188906600140596, 0.000000000000000000, -14.40911534819275097 ) ) ;
#245 = DIRECTION ( 'NONE',  ( 0.7071067811865474617, 0.000000000000000000, 0.7071067811865474617 ) ) ;
#246 = PRODUCT_DEFINITION ( 'UNKNOWN', '', #236, #217 ) ;
#247 = DIRECTION ( 'NONE',  ( 0.000000000000000000, 0.000000000000000000, -1.000000000000000000 ) ) ;
#248 = DIRECTION ( 'NONE',  ( 0.000000000000000000, 0.000000000000000000, 1.000000000000000000 ) ) ;
#249 = FACE_OUTER_BOUND ( 'NONE', #491, .T. ) ;
#250 = CIRCLE ( 'NONE', #400, 4.224999999999999645 ) ;
#251 = CONICAL_SURFACE ( 'NONE', #127, 8.785769515458676793, 0.2617993877991500740 ) ;
#252 = EDGE_CURVE ( 'NONE', #515, #482, #96, .T. ) ;
#253 =( GEOMETRIC_REPRESENTATION_CONTEXT ( 3 ) GLOBAL_UNCERTAINTY_ASSIGNED_CONTEXT ( ( #229 ) ) GLOBAL_UNIT_ASSIGNED_CONTEXT ( ( #416, #33, #505 ) ) REPRESENTATION_CONTEXT ( 'NONE', 'WORKASPACE' ) );
#254 = CARTESIAN_POINT ( 'NONE',  ( 0.000000000000000000, 0.000000000000000000, 0.000000000000000000 ) ) ;
#255 = ADVANCED_FACE ( 'NONE', ( #223 ), #126, .T. ) ;
#256 = DIRECTION ( 'NONE',  ( 0.000000000000000000, 0.000000000000000000, -1.000000000000000000 ) ) ;
#257 = PLANE ( 'NONE',  #484 ) ;
#258 = DIRECTION ( 'NONE',  ( -0.000000000000000000, -0.000000000000000000, 1.000000000000000000 ) ) ;
#259 = ORIENTED_EDGE ( 'NONE', *, *, #543, .F. ) ;
#260 = AXIS2_PLACEMENT_3D ( 'NONE', #32, #504, #119 ) ;
#261 = AXIS2_PLACEMENT_3D ( 'NONE', #281, #147, #401 ) ;
#262 = FACE_OUTER_BOUND ( 'NONE', #40, .T. ) ;
#263 = VERTEX_POINT ( 'NONE', #182 ) ;
#264 = CARTESIAN_POINT ( 'NONE',  ( -3.112291605316329424, 3.811457952463820261E-16, -5.289111748885084729 ) ) ;
#265 = ORIENTED_EDGE ( 'NONE', *, *, #146, .F. ) ;
#266 = CARTESIAN_POINT ( 'NONE',  ( 0.000000000000000000, 0.000000000000000000, 0.6602540378443811919 ) ) ;
#267 = ORIENTED_EDGE ( 'NONE', *, *, #14, .F. ) ;
#268 = FACE_OUTER_BOUND ( 'NONE', #524, .T. ) ;
#269 = STYLED_ITEM ( 'NONE', ( #38 ), #532 ) ;
#270 = ORIENTED_EDGE ( 'NONE', *, *, #492, .F. ) ;
#271 = CARTESIAN_POINT ( 'NONE',  ( 0.000000000000000000, 0.000000000000000000, -15.00000000000000000 ) ) ;
#272 = CARTESIAN_POINT ( 'NONE',  ( 8.785769515458676793, 1.075946451515286141E-15, 0.6602540378443819691 ) ) ;
#273 = FACE_OUTER_BOUND ( 'NONE', #357, .T. ) ;
#274 = ORIENTED_EDGE ( 'NONE', *, *, #186, .T. ) ;
#275 = ADVANCED_FACE ( 'NONE', ( #262 ), #512, .F. ) ;
#276 = DIRECTION ( 'NONE',  ( -1.000000000000000000, 0.000000000000000000, 0.000000000000000000 ) ) ;
#277 = CONICAL_SURFACE ( 'NONE', #477, 3.204148181936937956, 0.1745329251994260089 ) ;
#278 = CIRCLE ( 'NONE', #3, 3.000000000000000000 ) ;
#279 = ORIENTED_EDGE ( 'NONE', *, *, #30, .T. ) ;
#280 = AXIS2_PLACEMENT_3D ( 'NONE', #358, #366, #157 ) ;
#281 = CARTESIAN_POINT ( 'NONE',  ( 0.000000000000000000, 0.000000000000000000, 0.6602540378443811919 ) ) ;
#282 = CARTESIAN_POINT ( 'NONE',  ( 0.000000000000000000, 0.000000000000000000, -15.00000000000000000 ) ) ;
#283 = CARTESIAN_POINT ( 'NONE',  ( 3.112291605316329424, 0.000000000000000000, -5.289111748885084729 ) ) ;
#284 = ORIENTED_EDGE ( 'NONE', *, *, #47, .F. ) ;
#285 =( NAMED_UNIT ( * ) PLANE_ANGLE_UNIT ( ) SI_UNIT ( $, .RADIAN. ) );
#286 = EDGE_CURVE ( 'NONE', #263, #433, #199, .T. ) ;
#287 = DIRECTION ( 'NONE',  ( -1.000000000000000000, 0.000000000000000000, -0.000000000000000000 ) ) ;
#288 = AXIS2_PLACEMENT_3D ( 'NONE', #337, #377, #379 ) ;
#289 = CIRCLE ( 'NONE', #412, 8.925000000000004263 ) ;
#290 = DIRECTION ( 'NONE',  ( 0.000000000000000000, 0.000000000000000000, -1.000000000000000000 ) ) ;
#291 = DIRECTION ( 'NONE',  ( 0.000000000000000000, -0.000000000000000000, 1.000000000000000000 ) ) ;
#292 = CYLINDRICAL_SURFACE ( 'NONE', #402, 4.224999999999999645 ) ;
#293 = DIRECTION ( 'NONE',  ( 0.5000000000000006661, 0.000000000000000000, 0.8660254037844382635 ) ) ;
#294 = EDGE_CURVE ( 'NONE', #482, #311, #88, .T. ) ;
#295 = LINE ( 'NONE', #31, #440 ) ;
#296 = DIRECTION ( 'NONE',  ( 1.000000000000000000, 0.000000000000000000, 0.000000000000000000 ) ) ;
#297 = EDGE_LOOP ( 'NONE', ( #413, #459, #469, #483 ) ) ;
#298 = CONICAL_SURFACE ( 'NONE', #206, 1.917930794008003481, 0.6108652381980227419 ) ;
#299 = FACE_OUTER_BOUND ( 'NONE', #403, .T. ) ;
#300 = DIRECTION ( 'NONE',  ( -0.000000000000000000, -0.000000000000000000, 1.000000000000000000 ) ) ;
#301 = ORIENTED_EDGE ( 'NONE', *, *, #345, .T. ) ;
#302 = LINE ( 'NONE', #435, #190 ) ;
#303 = EDGE_LOOP ( 'NONE', ( #316, #457 ) ) ;
#304 = TOROIDAL_SURFACE ( 'NONE', #351, 8.070299461620750847, 3.000000000000000000 ) ;
#305 = DIRECTION ( 'NONE',  ( 0.000000000000000000, 0.000000000000000000, -1.000000000000000000 ) ) ;
#306 = EDGE_LOOP ( 'NONE', ( #270, #389, #535, #381 ) ) ;
#307 = DIRECTION ( 'NONE',  ( -0.000000000000000000, -0.000000000000000000, 1.000000000000000000 ) ) ;
#308 = ORIENTED_EDGE ( 'NONE', *, *, #455, .F. ) ;
#309 = EDGE_CURVE ( 'NONE', #86, #4, #56, .T. ) ;
#310 = DIRECTION ( 'NONE',  ( -1.000000000000000000, 0.000000000000000000, 0.000000000000000000 ) ) ;
#311 = VERTEX_POINT ( 'NONE', #264 ) ;
#312 = CONICAL_SURFACE ( 'NONE', #71, 4.224999999999999645, 0.5235987755982995928 ) ;
#313 = DIRECTION ( 'NONE',  ( -0.000000000000000000, -0.000000000000000000, 1.000000000000000000 ) ) ;
#314 = CIRCLE ( 'NONE', #529, 2.999999999999999112 ) ;
#315 = AXIS2_PLACEMENT_3D ( 'NONE', #510, #248, #114 ) ;
#316 = ORIENTED_EDGE ( 'NONE', *, *, #552, .T. ) ;
#317 = DIRECTION ( 'NONE',  ( -1.000000000000000000, 0.000000000000000000, 0.000000000000000000 ) ) ;
#318 = ADVANCED_FACE ( 'NONE', ( #346 ), #251, .T. ) ;
#319 = ORIENTED_EDGE ( 'NONE', *, *, #47, .T. ) ;
#320 = DIRECTION ( 'NONE',  ( -0.000000000000000000, -0.000000000000000000, 1.000000000000000000 ) ) ;
#321 = CARTESIAN_POINT ( 'NONE',  ( 0.000000000000000000, 0.000000000000000000, -8.000000000000000000 ) ) ;
#322 = DIRECTION ( 'NONE',  ( -0.000000000000000000, -0.000000000000000000, 1.000000000000000000 ) ) ;
#323 = CIRCLE ( 'NONE', #134, 5.472223250267435724 ) ;
#324 = AXIS2_PLACEMENT_3D ( 'NONE', #266, #300, #518 ) ;
#325 = CARTESIAN_POINT ( 'NONE',  ( -4.224999999999999645, 8.052052704393849599E-16, -8.000000000000000000 ) ) ;
#326 = DIRECTION ( 'NONE',  ( -1.000000000000000000, 0.000000000000000000, 0.000000000000000000 ) ) ;
#327 = DIRECTION ( 'NONE',  ( -0.000000000000000000, -0.000000000000000000, -1.000000000000000000 ) ) ;
#328 = EDGE_CURVE ( 'NONE', #185, #531, #156, .T. ) ;
#329 = DIRECTION ( 'NONE',  ( -0.000000000000000000, -1.000000000000000000, -0.000000000000000000 ) ) ;
#330 = DIRECTION ( 'NONE',  ( 1.000000000000000000, 0.000000000000000000, 0.000000000000000000 ) ) ;
#331 = CARTESIAN_POINT ( 'NONE',  ( 0.000000000000000000, 0.000000000000000000, 0.6602540378443811919 ) ) ;
#332 = CARTESIAN_POINT ( 'NONE',  ( 6.338248654051874986, 0.000000000000000000, 0.6602540378443811919 ) ) ;
#333 = AXIS2_PLACEMENT_3D ( 'NONE', #533, #320, #104 ) ;
#334 = CARTESIAN_POINT ( 'NONE',  ( -4.224999999999999645, 5.174132726397567306E-16, -8.000000000000000000 ) ) ;
#335 = EDGE_CURVE ( 'NONE', #359, #70, #302, .T. ) ;
#336 = PRODUCT_CONTEXT ( 'NONE', #497, 'mechanical' ) ;
#337 = CARTESIAN_POINT ( 'NONE',  ( 0.000000000000000000, 0.000000000000000000, -14.40000000000000036 ) ) ;
#338 = ORIENTED_EDGE ( 'NONE', *, *, #195, .T. ) ;
#339 = DIRECTION ( 'NONE',  ( 0.5735764363510522656, 7.024285468436616353E-17, -0.8191520442889875797 ) ) ;
#340 = DIRECTION ( 'NONE',  ( -0.000000000000000000, -0.000000000000000000, 1.000000000000000000 ) ) ;
#341 = AXIS2_PLACEMENT_3D ( 'NONE', #282, #409, #67 ) ;
#342 = MECHANICAL_DESIGN_GEOMETRIC_PRESENTATION_REPRESENTATION (  '', ( #269 ), #99 ) ;
#343 = CARTESIAN_POINT ( 'NONE',  ( 0.000000000000000000, 0.000000000000000000, -0.8397459621556149223 ) ) ;
#344 = ORIENTED_EDGE ( 'NONE', *, *, #53, .F. ) ;
#345 = EDGE_CURVE ( 'NONE', #172, #24, #79, .T. ) ;
#346 = FACE_OUTER_BOUND ( 'NONE', #132, .T. ) ;
#347 = ORIENTED_EDGE ( 'NONE', *, *, #216, .T. ) ;
#348 = CARTESIAN_POINT ( 'NONE',  ( 0.000000000000000000, 0.000000000000000000, 0.6602540378443819691 ) ) ;
#349 = EDGE_LOOP ( 'NONE', ( #301, #365, #29, #177 ) ) ;
#350 = CIRCLE ( 'NONE', #178, 1.504188906600140596 ) ;
#351 = AXIS2_PLACEMENT_3D ( 'NONE', #197, #490, #238 ) ;
#352 = DIRECTION ( 'NONE',  ( -1.000000000000000000, 0.000000000000000000, 0.000000000000000000 ) ) ;
#353 = ADVANCED_FACE ( 'NONE', ( #179 ), #200, .T. ) ;
#354 = ORIENTED_EDGE ( 'NONE', *, *, #335, .F. ) ;
#355 = ADVANCED_FACE ( 'NONE', ( #57 ), #145, .F. ) ;
#356 = DIRECTION ( 'NONE',  ( 0.000000000000000000, 0.000000000000000000, -1.000000000000000000 ) ) ;
#357 = EDGE_LOOP ( 'NONE', ( #136, #139, #65, #198 ) ) ;
#358 = CARTESIAN_POINT ( 'NONE',  ( 0.000000000000000000, 0.000000000000000000, -15.00000000000000000 ) ) ;
#359 = VERTEX_POINT ( 'NONE', #102 ) ;
#360 = CIRCLE ( 'NONE', #519, 3.000000000000000000 ) ;
#361 = CARTESIAN_POINT ( 'NONE',  ( -4.224999999999999645, 5.174132726397567306E-16, 0.000000000000000000 ) ) ;
#362 = VECTOR ( 'NONE', #526, 1000.000000000000227 ) ;
#363 = VERTEX_POINT ( 'NONE', #488 ) ;
#364 = DIRECTION ( 'NONE',  ( 0.000000000000000000, 0.000000000000000000, -1.000000000000000000 ) ) ;
#365 = ORIENTED_EDGE ( 'NONE', *, *, #93, .T. ) ;
#366 = DIRECTION ( 'NONE',  ( 0.000000000000000000, 0.000000000000000000, -1.000000000000000000 ) ) ;
#367 = DIRECTION ( 'NONE',  ( -0.000000000000000000, -0.000000000000000000, 1.000000000000000000 ) ) ;
#368 = CARTESIAN_POINT ( 'NONE',  ( -6.338248654051874986, 7.762115926384647653E-16, 0.6602540378443811919 ) ) ;
#369 = VECTOR ( 'NONE', #293, 1000.000000000000000 ) ;
#370 = AXIS2_PLACEMENT_3D ( 'NONE', #437, #173, #391 ) ;
#371 = DIRECTION ( 'NONE',  ( 1.000000000000000000, 0.000000000000000000, 0.000000000000000000 ) ) ;
#372 = EDGE_CURVE ( 'NONE', #185, #542, #278, .T. ) ;
#373 = ORIENTED_EDGE ( 'NONE', *, *, #372, .T. ) ;
#374 = DIRECTION ( 'NONE',  ( 0.000000000000000000, 0.000000000000000000, -1.000000000000000000 ) ) ;
#375 = CARTESIAN_POINT ( 'NONE',  ( -8.785769515458676793, 0.000000000000000000, 0.6602540378443811919 ) ) ;
#376 = DIRECTION ( 'NONE',  ( -0.000000000000000000, -0.000000000000000000, -1.000000000000000000 ) ) ;
#377 = DIRECTION ( 'NONE',  ( -0.000000000000000000, -0.000000000000000000, 1.000000000000000000 ) ) ;
#378 = DIRECTION ( 'NONE',  ( 1.000000000000000000, 0.000000000000000000, 0.000000000000000000 ) ) ;
#379 = DIRECTION ( 'NONE',  ( 1.000000000000000000, 0.000000000000000000, 0.000000000000000000 ) ) ;
#380 = LINE ( 'NONE', #423, #19 ) ;
#381 = ORIENTED_EDGE ( 'NONE', *, *, #216, .F. ) ;
#382 = CIRCLE ( 'NONE', #97, 3.000000000000000000 ) ;
#383 = EDGE_CURVE ( 'NONE', #436, #4, #66, .T. ) ;
#384 = AXIS2_PLACEMENT_3D ( 'NONE', #5, #7, #352 ) ;
#385 = DIRECTION ( 'NONE',  ( -0.000000000000000000, -0.000000000000000000, 1.000000000000000000 ) ) ;
#386 = ADVANCED_BREP_SHAPE_REPRESENTATION ( 'Funnel Body rev 2', ( #532, #315 ), #253 ) ;
#387 = ORIENTED_EDGE ( 'NONE', *, *, #228, .F. ) ;
#388 = DIRECTION ( 'NONE',  ( -0.000000000000000000, -0.000000000000000000, -1.000000000000000000 ) ) ;
#389 = ORIENTED_EDGE ( 'NONE', *, *, #509, .T. ) ;
#390 = ADVANCED_FACE ( 'NONE', ( #230 ), #503, .T. ) ;
#391 = DIRECTION ( 'NONE',  ( -1.000000000000000000, 0.000000000000000000, 0.000000000000000000 ) ) ;
#392 = EDGE_LOOP ( 'NONE', ( #214, #522 ) ) ;
#393 = AXIS2_PLACEMENT_3D ( 'NONE', #394, #90, #94 ) ;
#394 = CARTESIAN_POINT ( 'NONE',  ( 0.000000000000000000, 0.000000000000000000, -5.810056281885856322 ) ) ;
#395 = ORIENTED_EDGE ( 'NONE', *, *, #175, .T. ) ;
#396 = DIRECTION ( 'NONE',  ( 0.000000000000000000, 0.000000000000000000, -1.000000000000000000 ) ) ;
#397 = EDGE_LOOP ( 'NONE', ( #425, #225, #148, #259 ) ) ;
#398 = LINE ( 'NONE', #361, #72 ) ;
#399 = ORIENTED_EDGE ( 'NONE', *, *, #328, .F. ) ;
#400 = AXIS2_PLACEMENT_3D ( 'NONE', #84, #258, #426 ) ;
#401 = DIRECTION ( 'NONE',  ( 1.000000000000000000, 0.000000000000000000, 0.000000000000000000 ) ) ;
#402 = AXIS2_PLACEMENT_3D ( 'NONE', #254, #414, #378 ) ;
#403 = EDGE_LOOP ( 'NONE', ( #274, #91, #221, #8 ) ) ;
#404 = DIRECTION ( 'NONE',  ( -1.224646799147353207E-16, 1.000000000000000000, 0.000000000000000000 ) ) ;
#405 = ORIENTED_EDGE ( 'NONE', *, *, #454, .F. ) ;
#406 = ADVANCED_FACE ( 'NONE', ( #273 ), #304, .T. ) ;
#407 = DIRECTION ( 'NONE',  ( -1.000000000000000000, 0.000000000000000000, 0.000000000000000000 ) ) ;
#408 = ADVANCED_FACE ( 'NONE', ( #486 ), #36, .T. ) ;
#409 = DIRECTION ( 'NONE',  ( -0.000000000000000000, -0.000000000000000000, 1.000000000000000000 ) ) ;
#410 = DIRECTION ( 'NONE',  ( -1.000000000000000000, 0.000000000000000000, 0.000000000000000000 ) ) ;
#411 = VECTOR ( 'NONE', #60, 1000.000000000000000 ) ;
#412 = AXIS2_PLACEMENT_3D ( 'NONE', #61, #443, #151 ) ;
#413 = ORIENTED_EDGE ( 'NONE', *, *, #445, .F. ) ;
#414 = DIRECTION ( 'NONE',  ( -0.000000000000000000, -0.000000000000000000, 1.000000000000000000 ) ) ;
#415 = CYLINDRICAL_SURFACE ( 'NONE', #260, 4.224999999999999645 ) ;
#416 =( LENGTH_UNIT ( ) NAMED_UNIT ( * ) SI_UNIT ( .MILLI., .METRE. ) );
#417 = CARTESIAN_POINT ( 'NONE',  ( -4.224999999999999645, 5.174132726397567306E-16, -14.40000000000000036 ) ) ;
#418 = CARTESIAN_POINT ( 'NONE',  ( 5.472223250267435724, 0.000000000000000000, -0.8397459621556149223 ) ) ;
#419 = CIRCLE ( 'NONE', #461, 3.112291605316329424 ) ;
#420 = CARTESIAN_POINT ( 'NONE',  ( 8.070299461620750847, 9.883266403834461975E-16, 0.6602540378443811919 ) ) ;
#421 = CARTESIAN_POINT ( 'NONE',  ( -8.070299461620750847, 0.000000000000000000, -2.339745962155618919 ) ) ;
#422 = ORIENTED_EDGE ( 'NONE', *, *, #345, .F. ) ;
#423 = CARTESIAN_POINT ( 'NONE',  ( 4.224999999999999645, 0.000000000000000000, -14.40000000000000036 ) ) ;
#424 = ADVANCED_FACE ( 'NONE', ( #194 ), #298, .F. ) ;
#425 = ORIENTED_EDGE ( 'NONE', *, *, #294, .F. ) ;
#426 = DIRECTION ( 'NONE',  ( 1.000000000000000000, 0.000000000000000000, 0.000000000000000000 ) ) ;
#427 = ORIENTED_EDGE ( 'NONE', *, *, #286, .F. ) ;
#428 = VECTOR ( 'NONE', #124, 1000.000000000000000 ) ;
#429 = CIRCLE ( 'NONE', #11, 3.624999999999999556 ) ;
#430 = UNCERTAINTY_MEASURE_WITH_UNIT (LENGTH_MEASURE( 1.000000000000000082E-05 ), #466, 'distance_accuracy_value', 'NONE');
#431 = PRODUCT_DEFINITION_SHAPE ( 'NONE', 'NONE',  #246 ) ;
#432 = DIRECTION ( 'NONE',  ( -0.000000000000000000, -0.000000000000000000, 1.000000000000000000 ) ) ;
#433 = VERTEX_POINT ( 'NONE', #25 ) ;
#434 = EDGE_CURVE ( 'NONE', #359, #89, #521, .T. ) ;
#435 = CARTESIAN_POINT ( 'NONE',  ( -4.224999999999999645, 5.174132726397567306E-16, -14.40000000000000036 ) ) ;
#436 = VERTEX_POINT ( 'NONE', #446 ) ;
#437 = CARTESIAN_POINT ( 'NONE',  ( 0.000000000000000000, 0.000000000000000000, -5.289111748885084729 ) ) ;
#438 = ORIENTED_EDGE ( 'NONE', *, *, #525, .F. ) ;
#439 = AXIS2_PLACEMENT_3D ( 'NONE', #481, #385, #130 ) ;
#440 = VECTOR ( 'NONE', #339, 999.9999999999998863 ) ;
#441 = DIRECTION ( 'NONE',  ( -1.000000000000000000, 0.000000000000000000, 0.000000000000000000 ) ) ;
#442 = ORIENTED_EDGE ( 'NONE', *, *, #252, .T. ) ;
#443 = DIRECTION ( 'NONE',  ( 0.000000000000000000, 0.000000000000000000, -1.000000000000000000 ) ) ;
#444 = ORIENTED_EDGE ( 'NONE', *, *, #155, .F. ) ;
#445 = EDGE_CURVE ( 'NONE', #433, #531, #112, .T. ) ;
#446 = CARTESIAN_POINT ( 'NONE',  ( -1.504188906600140596, 2.826779041122319834E-16, -14.40911534819275097 ) ) ;
#447 = CARTESIAN_POINT ( 'NONE',  ( 4.224999999999999645, 0.000000000000000000, 0.000000000000000000 ) ) ;
#448 = CIRCLE ( 'NONE', #502, 8.785769515458676793 ) ;
#449 = CIRCLE ( 'NONE', #222, 8.070299461620750847 ) ;
#450 = DIRECTION ( 'NONE',  ( -0.000000000000000000, -0.000000000000000000, 1.000000000000000000 ) ) ;
#451 = AXIS2_PLACEMENT_3D ( 'NONE', #220, #523, #9 ) ;
#452 = CIRCLE ( 'NONE', #108, 8.785769515458676793 ) ;
#453 = DIRECTION ( 'NONE',  ( -0.000000000000000000, -0.000000000000000000, 1.000000000000000000 ) ) ;
#454 = EDGE_CURVE ( 'NONE', #436, #311, #536, .T. ) ;
#455 = EDGE_CURVE ( 'NONE', #311, #482, #419, .T. ) ;
#456 = DIRECTION ( 'NONE',  ( 1.000000000000000000, 0.000000000000000000, 0.000000000000000000 ) ) ;
#457 = ORIENTED_EDGE ( 'NONE', *, *, #53, .T. ) ;
#458 = CARTESIAN_POINT ( 'NONE',  ( 8.070299461620750847, 9.883266403834461975E-16, -2.339745962155618919 ) ) ;
#459 = ORIENTED_EDGE ( 'NONE', *, *, #85, .T. ) ;
#460 = SURFACE_STYLE_FILL_AREA ( #501 ) ;
#461 = AXIS2_PLACEMENT_3D ( 'NONE', #109, #313, #326 ) ;
#462 = CARTESIAN_POINT ( 'NONE',  ( 3.624999999999999556, 0.000000000000000000, -15.00000000000000000 ) ) ;
#463 = CARTESIAN_POINT ( 'NONE',  ( 0.000000000000000000, 0.000000000000000000, 0.6602540378443811919 ) ) ;
#464 = CARTESIAN_POINT ( 'NONE',  ( 4.224999999999999645, 0.000000000000000000, -8.000000000000000000 ) ) ;
#465 = DIRECTION ( 'NONE',  ( -0.2588190451025213501, 0.000000000000000000, -0.9659258262890680902 ) ) ;
#466 =( LENGTH_UNIT ( ) NAMED_UNIT ( * ) SI_UNIT ( .MILLI., .METRE. ) );
#467 = CARTESIAN_POINT ( 'NONE',  ( 0.000000000000000000, 0.000000000000000000, -4.768167215884282939 ) ) ;
#468 = CONICAL_SURFACE ( 'NONE', #261, 6.338248654051874986, 0.5235987755982998149 ) ;
#469 = ORIENTED_EDGE ( 'NONE', *, *, #137, .T. ) ;
#470 = EDGE_CURVE ( 'NONE', #499, #174, #180, .T. ) ;
#471 = CARTESIAN_POINT ( 'NONE',  ( 0.000000000000000000, 0.000000000000000000, 0.6602540378443811919 ) ) ;
#472 = DIRECTION ( 'NONE',  ( 0.000000000000000000, 0.000000000000000000, -1.000000000000000000 ) ) ;
#473 = ORIENTED_EDGE ( 'NONE', *, *, #286, .T. ) ;
#474 = DIRECTION ( 'NONE',  ( -1.000000000000000000, 0.000000000000000000, 0.000000000000000000 ) ) ;
#475 = ORIENTED_EDGE ( 'NONE', *, *, #309, .T. ) ;
#476 = EDGE_CURVE ( 'NONE', #174, #499, #289, .T. ) ;
#477 = AXIS2_PLACEMENT_3D ( 'NONE', #467, #545, #330 ) ;
#478 = CIRCLE ( 'NONE', #164, 8.070299461620750847 ) ;
#479 = DIRECTION ( 'NONE',  ( -1.000000000000000000, 0.000000000000000000, 0.000000000000000000 ) ) ;
#480 = EDGE_LOOP ( 'NONE', ( #444, #308, #489, #427 ) ) ;
#481 = CARTESIAN_POINT ( 'NONE',  ( 0.000000000000000000, 0.000000000000000000, -14.40000000000000036 ) ) ;
#482 = VERTEX_POINT ( 'NONE', #283 ) ;
#483 = ORIENTED_EDGE ( 'NONE', *, *, #328, .T. ) ;
#484 = AXIS2_PLACEMENT_3D ( 'NONE', #115, #291, #296 ) ;
#485 = EDGE_CURVE ( 'NONE', #89, #359, #429, .T. ) ;
#486 = FACE_OUTER_BOUND ( 'NONE', #349, .T. ) ;
#487 = LINE ( 'NONE', #272, #411 ) ;
#488 = CARTESIAN_POINT ( 'NONE',  ( 4.224999999999999645, 0.000000000000000000, -14.40000000000000036 ) ) ;
#489 = ORIENTED_EDGE ( 'NONE', *, *, #543, .T. ) ;
#490 = DIRECTION ( 'NONE',  ( 0.000000000000000000, 0.000000000000000000, -1.000000000000000000 ) ) ;
#491 = EDGE_LOOP ( 'NONE', ( #95, #150, #422, #267 ) ) ;
#492 = EDGE_CURVE ( 'NONE', #70, #24, #398, .T. ) ;
#493 = AXIS2_PLACEMENT_3D ( 'NONE', #138, #432, #176 ) ;
#494 = AXIS2_PLACEMENT_3D ( 'NONE', #17, #21, #15 ) ;
#495 = CARTESIAN_POINT ( 'NONE',  ( 8.925000000000004263, 0.000000000000000000, 0.1406387955737165019 ) ) ;
#496 = EDGE_LOOP ( 'NONE', ( #103, #6, #242, #265 ) ) ;
#497 = APPLICATION_CONTEXT ( 'automotive_design' ) ;
#498 = DIRECTION ( 'NONE',  ( 1.000000000000000000, 0.000000000000000000, 0.000000000000000000 ) ) ;
#499 = VERTEX_POINT ( 'NONE', #495 ) ;
#500 = CARTESIAN_POINT ( 'NONE',  ( -8.785769515458676793, 0.000000000000000000, 0.6602540378443819691 ) ) ;
#501 = FILL_AREA_STYLE ('',( #544 ) ) ;
#502 = AXIS2_PLACEMENT_3D ( 'NONE', #471, #340, #121 ) ;
#503 = CONICAL_SURFACE ( 'NONE', #135, 8.785769515458676793, 0.2617993877991500740 ) ;
#504 = DIRECTION ( 'NONE',  ( -0.000000000000000000, -0.000000000000000000, 1.000000000000000000 ) ) ;
#505 =( NAMED_UNIT ( * ) SI_UNIT ( $, .STERADIAN. ) SOLID_ANGLE_UNIT ( ) );
#506 = FACE_OUTER_BOUND ( 'NONE', #303, .T. ) ;
#507 = CARTESIAN_POINT ( 'NONE',  ( 0.000000000000000000, 0.000000000000000000, -4.310056281885853657 ) ) ;
#508 = ADVANCED_FACE ( 'NONE', ( #232 ), #468, .F. ) ;
#509 = EDGE_CURVE ( 'NONE', #70, #363, #539, .T. ) ;
#510 = CARTESIAN_POINT ( 'NONE',  ( 0.000000000000000000, 0.000000000000000000, 0.000000000000000000 ) ) ;
#511 = CARTESIAN_POINT ( 'NONE',  ( 8.785769515458676793, 1.084471859877149616E-15, 0.6602540378443811919 ) ) ;
#512 = CONICAL_SURFACE ( 'NONE', #324, 6.338248654051874986, 0.5235987755982998149 ) ;
#513 = COLOUR_RGB ( '',0.7921568627450980005, 0.8196078431372548767, 0.9333333333333333481 ) ;
#514 = DIRECTION ( 'NONE',  ( 0.1736481776669235311, 0.000000000000000000, 0.9848077530122093526 ) ) ;
#515 = VERTEX_POINT ( 'NONE', #244 ) ;
#516 = CARTESIAN_POINT ( 'NONE',  ( 0.000000000000000000, 0.000000000000000000, -0.8397459621556149223 ) ) ;
#517 = ORIENTED_EDGE ( 'NONE', *, *, #470, .T. ) ;
#518 = DIRECTION ( 'NONE',  ( 1.000000000000000000, 0.000000000000000000, 0.000000000000000000 ) ) ;
#519 = AXIS2_PLACEMENT_3D ( 'NONE', #1, #166, #73 ) ;
#520 = ORIENTED_EDGE ( 'NONE', *, *, #509, .F. ) ;
#521 = CIRCLE ( 'NONE', #280, 3.624999999999999556 ) ;
#522 = ORIENTED_EDGE ( 'NONE', *, *, #550, .T. ) ;
#523 = DIRECTION ( 'NONE',  ( -0.000000000000000000, -0.000000000000000000, 1.000000000000000000 ) ) ;
#524 = EDGE_LOOP ( 'NONE', ( #399, #373, #387, #152 ) ) ;
#525 = EDGE_CURVE ( 'NONE', #515, #86, #295, .T. ) ;
#526 = DIRECTION ( 'NONE',  ( -0.5000000000000007772, 6.123233995736775897E-17, 0.8660254037844381525 ) ) ;
#527 = ORIENTED_EDGE ( 'NONE', *, *, #129, .T. ) ;
#528 = AXIS2_PLACEMENT_3D ( 'NONE', #158, #327, #113 ) ;
#529 = AXIS2_PLACEMENT_3D ( 'NONE', #163, #329, #374 ) ;
#530 = DIRECTION ( 'NONE',  ( -1.000000000000000000, -1.224646799147353207E-16, 0.000000000000000000 ) ) ;
#531 = VERTEX_POINT ( 'NONE', #82 ) ;
#532 = MANIFOLD_SOLID_BREP ( 'Chamfer1', #2 ) ;
#533 = CARTESIAN_POINT ( 'NONE',  ( 0.000000000000000000, 0.000000000000000000, -14.40000000000000036 ) ) ;
#534 = ADVANCED_FACE ( 'NONE', ( #549 ), #292, .T. ) ;
#535 = ORIENTED_EDGE ( 'NONE', *, *, #14, .T. ) ;
#536 = LINE ( 'NONE', #142, #107 ) ;
#537 = ORIENTED_EDGE ( 'NONE', *, *, #445, .T. ) ;
#538 = AXIS2_PLACEMENT_3D ( 'NONE', #507, #256, #168 ) ;
#539 = CIRCLE ( 'NONE', #333, 4.224999999999999645 ) ;
#540 = DIRECTION ( 'NONE',  ( -0.5735764363510522656, 0.000000000000000000, -0.8191520442889875797 ) ) ;
#541 = FACE_OUTER_BOUND ( 'NONE', #183, .T. ) ;
#542 = VERTEX_POINT ( 'NONE', #420 ) ;
#543 = EDGE_CURVE ( 'NONE', #311, #433, #314, .T. ) ;
#544 = FILL_AREA_STYLE_COLOUR ( '', #513 ) ;
#545 = DIRECTION ( 'NONE',  ( -0.000000000000000000, -0.000000000000000000, 1.000000000000000000 ) ) ;
#546 = AXIS2_PLACEMENT_3D ( 'NONE', #551, #388, #474 ) ;
#547 = VECTOR ( 'NONE', #540, 999.9999999999998863 ) ;
#548 = DIRECTION ( 'NONE',  ( -1.000000000000000000, 0.000000000000000000, 0.000000000000000000 ) ) ;
#549 = FACE_OUTER_BOUND ( 'NONE', #306, .T. ) ;
#550 = EDGE_CURVE ( 'NONE', #542, #16, #478, .T. ) ;
#551 = CARTESIAN_POINT ( 'NONE',  ( 0.000000000000000000, 0.000000000000000000, -14.40911534819275097 ) ) ;
#552 = EDGE_CURVE ( 'NONE', #98, #105, #452, .T. ) ;
#553 = CARTESIAN_POINT ( 'NONE',  ( 4.224999999999999645, 0.000000000000000000, -8.000000000000000000 ) ) ;
ENDSEC;
END-ISO-10303-21;
